<svg xmlns="http://www.w3.org/2000/svg" viewBox="0 0 160 160" width="160" height="160">
  <rect width="160" height="160" rx="20" fill="#f0e7d8" />
  <ellipse cx="76" cy="132" rx="44" ry="8" fill="#d8c8ae" />
  <path d="M44 62h64v42a32 32 0 0 1-64 0z" fill="#b3714a" />
  <path d="M44 62h64v10H44z" fill="#8d5433" />
  <path d="M108 74h9a17 17 0 0 1 0 34h-5" fill="none" stroke="#b3714a" stroke-width="9" stroke-linecap="round" />
  <ellipse cx="76" cy="62" rx="32" ry="9" fill="#c98457" />
  <ellipse cx="76" cy="62" rx="22" ry="6" fill="#6f3f27" />
  <path d="M62 30c0 9-6 9-6 17M92 26c0 10-6 10-6 19" fill="none" stroke="#c9b79a" stroke-width="5" stroke-linecap="round" />
</svg>
